<?xml version="1.0" standalone="no"?><!DOCTYPE svg PUBLIC "-//W3C//DTD SVG 1.1//EN" "http://www.w3.org/Graphics/SVG/1.1/DTD/svg11.dtd"><svg t="1669396955395" class="icon" viewBox="0 0 1024 1024" version="1.1" xmlns="http://www.w3.org/2000/svg" p-id="5949" xmlns:xlink="http://www.w3.org/1999/xlink" width="200" height="200"><path d="M904 588.87H299.2c-30.93 0-56-25.07-56-56V167.01c0-30.93 25.07-56 56-56H904c30.93 0 56 25.07 56 56v365.87c0 30.92-25.07 55.99-56 55.99z" fill="#FFD600" p-id="5950"></path><path d="M780.8 588.87V346.21c0-30.93-25.07-56-56-56H120c-30.93 0-56 25.07-56 56v365.87c0 30.93 25.07 56 56 56h27.88c15.46 0 28 12.54 28 28v88.88c0 21.44 23.12 34.93 41.79 24.37l243.3-137.62c4.21-2.38 8.95-3.63 13.79-3.63H724.8c30.93 0 56-25.07 56-56V588.87z" fill="#8C9EFF" p-id="5951"></path><path d="M240.4 529.14m-56 0a56 56 0 1 0 112 0 56 56 0 1 0-112 0Z" fill="#FFFFFF" p-id="5952"></path><path d="M422.4 529.14m-56 0a56 56 0 1 0 112 0 56 56 0 1 0-112 0Z" fill="#FFFFFF" p-id="5953"></path><path d="M604.4 529.14m-56 0a56 56 0 1 0 112 0 56 56 0 1 0-112 0Z" fill="#FFFFFF" p-id="5954"></path></svg>