<?xml version="1.0" standalone="no"?><!DOCTYPE svg PUBLIC "-//W3C//DTD SVG 1.1//EN" "http://www.w3.org/Graphics/SVG/1.1/DTD/svg11.dtd"><svg class="icon" width="200px" height="200.00px" viewBox="0 0 1024 1024" version="1.1" xmlns="http://www.w3.org/2000/svg"><path d="M506.231111 65.009619c-246.822478 0-446.911586 200.090131-446.911586 446.912609 0 246.823502 200.090131 446.912609 446.911586 446.912609 246.823502 0 446.912609-200.089108 446.912609-446.912609C953.144744 265.098727 753.054613 65.009619 506.231111 65.009619zM754.358305 563.059909C726.14166 675.452699 624.497679 758.688425 503.352551 758.688425c-76.719312 0-145.602146-33.400714-192.995549-86.430488-8.18031-9.153474-1.782599-23.714098 10.497075-23.864524 58.358129-0.714268 134.542252-11.323906 216.139665-31.859615 77.333296-19.464307 146.152684-44.48312 197.184965-70.025866C745.154689 541.015847 757.347382 551.153742 754.358305 563.059909zM804.08587 440.943664c-34.739199 33.655518-145.779178 79.576383-281.764292 113.798812-137.0207 34.488489-257.379928 46.534849-303.141158 32.848129-10.979052-3.28379-17.711384-8.029884-19.294438-14.32424-3.1262-12.411681 14.078647-28.981055 45.927005-47.094598-0.876973-8.661264-1.329275-17.452487-1.329275-26.348088 0-142.970202 115.89966-258.869862 258.868839-258.869862 107.044991 0 198.903096 64.97585 238.313687 157.635203 42.824341-0.188288 70.02689 6.253424 73.443709 19.833721C816.743144 424.914596 812.748157 432.555623 804.08587 440.943664z" fill="#1296db" /></svg>