<?xml version="1.0" standalone="no"?><!DOCTYPE svg PUBLIC "-//W3C//DTD SVG 1.1//EN" "http://www.w3.org/Graphics/SVG/1.1/DTD/svg11.dtd"><svg class="icon" width="200px" height="200.00px" viewBox="0 0 1024 1024" version="1.1" xmlns="http://www.w3.org/2000/svg"><path d="M482.133333 366.933333V341.333333h64v25.6c29.866667 8.533333 59.733333 21.333333 76.8 46.933334l21.333334-12.8 34.133333 55.466666-21.333333 12.8c4.266667 12.8 8.533333 29.866667 8.533333 46.933334s-4.266667 29.866667-8.533333 46.933333l21.333333 12.8-34.133333 55.466667-21.333334-12.8c-21.333333 21.333333-46.933333 38.4-76.8 46.933333v17.066667h-64v-25.6c-29.866667-8.533333-59.733333-21.333333-76.8-46.933334l-21.333333 12.8-34.133333-55.466666 21.333333-12.8c-4.266667-12.8-8.533333-29.866667-8.533333-46.933334s4.266667-29.866667 8.533333-46.933333l-21.333333-12.8 34.133333-46.933333 21.333333 12.8c21.333333-25.6 46.933333-42.666667 76.8-46.933334z m162.133334 494.933334l-98.133334-98.133334c128-17.066667 221.866667-123.733333 221.866667-251.733333 0-123.733333-89.6-226.133333-204.8-251.733333L473.6 170.666667h38.4c187.733333 0 341.333333 153.6 341.333333 341.333333 0 128-68.266667 234.666667-170.666666 294.4v93.866667l-38.4-38.4z m-89.6-12.8c-12.8 0-29.866667 4.266667-42.666667 4.266666-187.733333 0-341.333333-153.6-341.333333-341.333333 0-128 68.266667-234.666667 170.666666-294.4V115.2l59.733334 59.733333L482.133333 256C354.133333 273.066667 256 379.733333 256 512c0 128 93.866667 230.4 213.333333 251.733333l85.333334 85.333334z m-38.4-251.733334c46.933333 0 85.333333-38.4 85.333333-85.333333s-38.4-85.333333-85.333333-85.333333-85.333333 38.4-85.333334 85.333333 38.4 85.333333 85.333334 85.333333z m0-42.666666c-25.6 0-42.666667-17.066667-42.666667-42.666667s17.066667-42.666667 42.666667-42.666667 42.666667 17.066667 42.666666 42.666667-21.333333 42.666667-42.666666 42.666667z" fill="#1296db" /></svg>